<svg id="Capa_1" enable-background="new 0 0 551.122 551.122" height="512" viewBox="0 0 551.122 551.122" width="512" xmlns="http://www.w3.org/2000/svg"><path d="m275.561 68.887c-38.69 0-75.76 8.769-110.174 23.437l26.236 26.236c26.585-9.631 54.768-15.228 83.938-15.228 106.532 0 202.284 68.975 240.077 172.228-14.401 39.348-37.305 73.611-65.931 101.083l24.222 24.222c33.615-32.41 60.286-72.957 76.273-119.738 1.228-3.616 1.228-7.518 0-11.134-41.107-120.29-151.475-201.106-274.641-201.106z"/><path d="m343.983 270.921 31.063 31.063c2.26-8.485 3.852-17.233 3.852-26.423 0-56.983-46.353-103.337-103.337-103.337-9.19 0-17.938 1.592-26.423 3.852l31.063 31.063c34.235 2.329 61.453 29.547 63.782 63.782z"/><path d="m34.441 58.796 69.837 69.837c-46.253 34.98-83.385 82.914-103.358 141.361-1.228 3.616-1.228 7.518 0 11.134 41.106 120.291 151.473 201.107 274.64 201.107 51.2 0 99.557-15.045 142.216-40.103l74.549 74.549 24.354-24.354-457.885-457.886-24.354 24.354zm241.12 388.994c-106.532 0-202.284-68.975-240.077-172.228 18.64-50.931 52.137-92.358 93.378-122.345l62.649 62.649c-12.04 16.897-19.287 37.414-19.287 59.695 0 56.983 46.353 103.337 103.337 103.337 22.281 0 42.798-7.247 59.695-19.287l57.315 57.315c-35.572 19.276-75.193 30.864-117.01 30.864zm-59.132-207.005 93.91 93.91c-10.247 6.051-22.039 9.759-34.778 9.759-37.995 0-68.891-30.897-68.891-68.891 0-12.739 3.708-24.531 9.759-34.778z"/></svg>