<svg height="478pt" viewBox="-61 0 478 478.44" width="478pt" xmlns="http://www.w3.org/2000/svg"><path d="m46.085938 440.5625 53.761718-198.183594 15.433594 4.1875-53.761719 198.183594zm0 0"/><path d="m303.613281 230.191406c23.871094-26.257812 32.777344-62.84375 23.648438-97.136718-10.027344-37.496094-40.121094-66.273438-78.027344-74.613282-12.46875-36.152344-36.414063-58.441406-63.308594-58.441406-26.335937 0-49.945312 21.464844-62.53125 56.328125-39.921875 2.527344-74.859375 27.730469-89.851562 64.820313-14.988281 37.09375-7.375 79.492187 19.582031 109.050781l-15.28125 57.234375 13.496094 34.542968-31.609375 24.421876 15.601562 34.898437-29.121093 23.910156-5.992188 22.625 44.410156 50.566407 63.734375-21.558594 53.792969-197.992188c5.609375-1.832031 11.050781-4.144531 16.265625-6.910156 5.441406 2.914062 11.132813 5.34375 17.007813 7.253906l15.292968 57.265625 28.976563 23.101563-15.0625 36.90625 30.953125 22.503906-13.242188 35.246094 5.992188 22.625 63.761718 21.601562 44.421876-50.585937zm-117.6875-214.191406c17.765625 0 34.796875 15.382812 45.300781 40.089844-10.5625-.445313-21.128906.71875-31.34375 3.453125-7.476562 2.003906-14.699218 4.851562-21.527343 8.496093-11.765625-6.242187-24.628907-10.148437-37.878907-11.503906 10.429688-24.925781 27.597657-40.535156 45.449219-40.535156zm-69.683593 124.390625c2.414062 15.171875 7.253906 29.859375 14.335937 43.488281-2.320313.09375-4.648437-.148437-6.902344-.71875-9.015625-2.394531-15.8125-9.816406-17.410156-19.003906-1.597656-9.191406 2.300781-18.46875 9.976563-23.765625zm29.386718 37.761719c-7.070312-13.050782-11.773437-27.253906-13.898437-41.945313.933593.035157 1.863281.128907 2.785156.28125l1.65625.351563c6.15625 1.632812 11.402344 5.652344 14.585937 11.167968 3.183594 5.515626 4.035157 12.070313 2.367188 18.214844-1.242188 4.640625-3.851562 8.800782-7.496094 11.929688zm7.847656 66.617187-4.390624 1.207031-53.921876 198.457032-45.550781 15.398437-31.746093-36.152343 2.488281-9.375 34.558593-28.402344-15.4375-34.542969 31.113282-24.054687-15.9375-40.800782 16.273437-60.976562-3.265625-3.253906c-23.695312-23.703126-31.871094-58.804688-21.085937-90.535157 10.785156-31.734375 38.65625-54.585937 71.886719-58.9375-3.046876 12.84375-4.570313 26-4.535157 39.199219 0 3.574219.167969 7.359375.40625 11.296875-15.710937 6.621094-25.476562 22.492187-24.308593 39.5 1.167968 17.007813 13.015624 31.394531 29.484374 35.804687 3.433594.929688 6.976563 1.398438 10.535157 1.398438 20.019531-.089844 36.886719-14.964844 39.484375-34.8125 2.59375-19.847656-9.882813-38.5625-29.203125-43.796875l-.855469-.214844c-.746094-.199219-1.5-.355469-2.265625-.472656-2.328125-.414063-4.6875-.625-7.054687-.625-.144532-2.789063-.222657-5.484375-.222657-8.078125.003907-13.417969 1.78125-26.777344 5.285157-39.726562 42.957031 2.5 77.792968 35.722656 82.324218 78.515624 4.53125 42.789063-22.578125 82.570313-64.058594 94.011719zm153.597657 215.0625-45.511719-15.390625-2.488281-9.378906 15.730469-41.878906-30.65625-22.289063 14.855468-36.382812-34.191406-27.3125-16.265625-60.953125-4.453125-1.199219c-3.382812-.945313-6.710938-2.082031-9.960938-3.40625 13.964844-10.980469 24.90625-25.332031 31.792969-41.703125.285157 0 .566407.078125.855469.078125 3.511719 0 7.011719-.472656 10.398438-1.40625 19.535156-5.226563 32.078124-24.230469 29.210937-44.25-2.871094-20.015625-20.25-34.726563-40.464844-34.253906-6.878906-16.378907-17.816406-30.734375-31.785156-41.707031 3.210937-1.316407 6.503906-2.4375 9.855469-3.351563 38.480468-10.347656 79.113281 6.449219 99.050781 40.949219 19.9375 34.503906 14.203125 78.097656-13.980469 106.269531l-3.261718 3.261719 53.039062 198.167968zm-76-323.398437c10.992187 2.074218 19.089843 11.464844 19.53125 22.636718.441406 11.175782-6.898438 21.171876-17.691407 24.105469-.566406.167969-1.191406.160157-1.78125.28125 3.667969-15.464843 3.648438-31.570312-.058593-47.023437zm0 0"/><path d="m246.972656 245.996094 15.453125-4.140625 53.007813 197.820312-15.453125 4.140625zm0 0"/></svg>