<svg xmlns="http://www.w3.org/2000/svg" data-name="Layer 1" viewBox="0 0 100 125" x="0px" y="0px"><path d="M99,47.85a2.5,2.5,0,0,0-2.5-2.5H90.72a2.5,2.5,0,0,0,0,5H96.5A2.5,2.5,0,0,0,99,47.85Z"/><path d="M91.49,60l-4.09-3.57a2.5,2.5,0,1,0-3.29,3.77l4.09,3.57A2.5,2.5,0,0,0,91.49,60Z"/><path d="M85.76,39.91a2.49,2.49,0,0,0,1.64-.62l4.09-3.57A2.5,2.5,0,0,0,88.2,32l-4.09,3.57a2.5,2.5,0,0,0,1.65,4.38Z"/><path d="M3.5,50.35H9.28a2.5,2.5,0,1,0,0-5H3.5a2.5,2.5,0,0,0,0,5Z"/><path d="M16.12,39a2.5,2.5,0,0,0-.24-3.53L11.8,32a2.5,2.5,0,1,0-3.29,3.77l4.09,3.57A2.5,2.5,0,0,0,16.12,39Z"/><path d="M8.27,63.51a2.5,2.5,0,0,0,3.53.24l4.09-3.57a2.5,2.5,0,0,0-3.29-3.77L8.51,60A2.5,2.5,0,0,0,8.27,63.51Z"/><path d="M44,84.82a8.45,8.45,0,0,0,6,14.41h0A8.45,8.45,0,0,0,52.5,82.71V65.8h8.59v4.8a2.5,2.5,0,0,0,1.13,2.09l10.49,6.89v3.13a8.45,8.45,0,0,0,2.5,16.52h0a8.45,8.45,0,0,0,2.48-16.52V78.23a2.5,2.5,0,0,0-1.13-2.09L66.09,69.25V65.8h5.15a6.42,6.42,0,0,0,6.42-6.42V36.32a6.42,6.42,0,0,0-6.42-6.42H69.78V20.55a19.78,19.78,0,0,0-39.55,0v9.36H28.75a6.42,6.42,0,0,0-6.42,6.42V59.38a6.42,6.42,0,0,0,6.42,6.42h5.15v3.45L23.41,76.14a2.5,2.5,0,0,0-1.13,2.09v4.47a8.45,8.45,0,0,0,2.5,16.52h0a8.45,8.45,0,0,0,2.48-16.52V79.58l10.49-6.89a2.5,2.5,0,0,0,1.13-2.09V65.8H47.5V82.71A8.41,8.41,0,0,0,44,84.82Zm33.65,8.39a3.43,3.43,0,0,1-2.44,1h0a3.45,3.45,0,0,1,0-6.9h0a3.45,3.45,0,0,1,2.44,5.88Zm-50.43,0a3.43,3.43,0,0,1-2.44,1h0a3.45,3.45,0,0,1,0-6.9h0a3.45,3.45,0,0,1,2.44,5.88Zm8-72.66a14.78,14.78,0,0,1,29.55,0v9.36H59.1V20.55a9.1,9.1,0,0,0-18.2,0v9.36H35.22ZM54.1,29.91H45.9V20.55a4.1,4.1,0,0,1,8.2,0ZM27.34,59.38V36.32a1.42,1.42,0,0,1,1.42-1.42h42.5a1.42,1.42,0,0,1,1.42,1.42V59.38a1.42,1.42,0,0,1-1.42,1.42H28.75A1.42,1.42,0,0,1,27.34,59.38ZM52.44,93.21a3.43,3.43,0,0,1-2.44,1h0a3.45,3.45,0,0,1-3.45-3.44h0A3.45,3.45,0,0,1,50,87.33h0a3.45,3.45,0,0,1,2.44,5.88Z"/></svg>
