<svg id="Capa_1" enable-background="new 0 0 551.121 551.121" height="512" viewBox="0 0 551.121 551.121" width="512" xmlns="http://www.w3.org/2000/svg"><path d="m275.561 68.887c-123.167 0-233.534 80.816-274.64 201.107-1.228 3.616-1.228 7.518 0 11.134 41.106 120.291 151.473 201.107 274.64 201.107s233.534-80.816 274.64-201.107c1.228-3.616 1.228-7.518 0-11.134-41.107-120.291-151.474-201.107-274.64-201.107zm0 378.902c-106.532 0-202.284-68.975-240.077-172.228 37.793-103.253 133.544-172.228 240.077-172.228 106.532 0 202.284 68.975 240.077 172.228-37.793 103.253-133.545 172.228-240.077 172.228z"/><path d="m275.561 172.224c-56.983 0-103.337 46.354-103.337 103.337s46.354 103.337 103.337 103.337 103.337-46.353 103.337-103.337-46.354-103.337-103.337-103.337zm0 172.228c-37.995 0-68.891-30.897-68.891-68.891 0-37.995 30.897-68.891 68.891-68.891 37.995 0 68.891 30.897 68.891 68.891s-30.897 68.891-68.891 68.891z"/></svg>